<mxfile host="app.diagrams.net" modified="2021-10-14T18:16:41.717Z" agent="5.0 (X11; Linux x86_64) AppleWebKit/537.36 (KHTML, like Gecko) Chrome/94.0.4606.71 Safari/537.36" etag="Plo1-zHfJJ-cS61XnM0e" version="15.5.2" type="github">
  <diagram id="T_vIvkkRDdqPUsJFXNAz" name="Page-1">
    <mxGraphModel dx="1024" dy="549" grid="1" gridSize="10" guides="1" tooltips="1" connect="1" arrows="1" fold="1" page="1" pageScale="1" pageWidth="850" pageHeight="1100" math="0" shadow="0">
      <root>
        <mxCell id="0" />
        <mxCell id="1" parent="0" />
        <mxCell id="2lAhy3hhc9lQTO_BXP1--1" value="" style="html=1;whiteSpace=wrap;shape=isoCube2;backgroundOutline=1;isoAngle=15;labelBackgroundColor=#97D077;fillColor=default;" parent="1" vertex="1">
          <mxGeometry x="90" y="580" width="90" height="100" as="geometry" />
        </mxCell>
        <mxCell id="2lAhy3hhc9lQTO_BXP1--2" value="" style="html=1;whiteSpace=wrap;shape=isoCube2;backgroundOutline=1;isoAngle=15;labelBackgroundColor=#97D077;fillColor=default;" parent="1" vertex="1">
          <mxGeometry x="90" y="530" width="90" height="100" as="geometry" />
        </mxCell>
        <mxCell id="KtkFy-ws_OHmOeXaZ4xC-1" value="" style="whiteSpace=wrap;html=1;aspect=fixed;labelBackgroundColor=#97D077;sketch=0;fillStyle=solid;strokeWidth=1;fillColor=none;" vertex="1" parent="1">
          <mxGeometry x="200" y="80" width="40" height="40" as="geometry" />
        </mxCell>
        <mxCell id="KtkFy-ws_OHmOeXaZ4xC-2" value="" style="whiteSpace=wrap;html=1;aspect=fixed;labelBackgroundColor=#97D077;sketch=0;fillStyle=solid;strokeWidth=1;fillColor=none;" vertex="1" parent="1">
          <mxGeometry x="240" y="80" width="40" height="40" as="geometry" />
        </mxCell>
        <mxCell id="KtkFy-ws_OHmOeXaZ4xC-3" value="" style="whiteSpace=wrap;html=1;aspect=fixed;labelBackgroundColor=#97D077;sketch=0;fillStyle=solid;strokeWidth=1;fillColor=none;" vertex="1" parent="1">
          <mxGeometry x="320" y="80" width="40" height="40" as="geometry" />
        </mxCell>
        <mxCell id="KtkFy-ws_OHmOeXaZ4xC-4" value="" style="whiteSpace=wrap;html=1;aspect=fixed;labelBackgroundColor=#97D077;sketch=0;fillStyle=solid;strokeWidth=1;fillColor=none;" vertex="1" parent="1">
          <mxGeometry x="280" y="80" width="40" height="40" as="geometry" />
        </mxCell>
        <mxCell id="KtkFy-ws_OHmOeXaZ4xC-5" value="" style="whiteSpace=wrap;html=1;aspect=fixed;labelBackgroundColor=#97D077;sketch=0;fillStyle=solid;strokeWidth=1;glass=0;rounded=0;shadow=0;fillColor=none;" vertex="1" parent="1">
          <mxGeometry x="160" y="80" width="40" height="40" as="geometry" />
        </mxCell>
        <mxCell id="KtkFy-ws_OHmOeXaZ4xC-6" value="" style="whiteSpace=wrap;html=1;aspect=fixed;labelBackgroundColor=#97D077;sketch=0;fillStyle=solid;strokeColor=default;strokeWidth=1;fillColor=none;" vertex="1" parent="1">
          <mxGeometry x="200" y="120" width="40" height="40" as="geometry" />
        </mxCell>
        <mxCell id="KtkFy-ws_OHmOeXaZ4xC-7" value="" style="whiteSpace=wrap;html=1;aspect=fixed;labelBackgroundColor=#97D077;sketch=0;fillStyle=solid;strokeColor=default;strokeWidth=1;fillColor=none;" vertex="1" parent="1">
          <mxGeometry x="240" y="120" width="40" height="40" as="geometry" />
        </mxCell>
        <mxCell id="KtkFy-ws_OHmOeXaZ4xC-8" value="" style="whiteSpace=wrap;html=1;aspect=fixed;labelBackgroundColor=#97D077;sketch=0;fillStyle=solid;strokeColor=default;strokeWidth=1;fillColor=none;" vertex="1" parent="1">
          <mxGeometry x="320" y="120" width="40" height="40" as="geometry" />
        </mxCell>
        <mxCell id="KtkFy-ws_OHmOeXaZ4xC-9" value="" style="whiteSpace=wrap;html=1;aspect=fixed;labelBackgroundColor=#97D077;sketch=0;fillStyle=solid;strokeColor=default;strokeWidth=1;fillColor=none;" vertex="1" parent="1">
          <mxGeometry x="280" y="120" width="40" height="40" as="geometry" />
        </mxCell>
        <mxCell id="KtkFy-ws_OHmOeXaZ4xC-10" value="" style="whiteSpace=wrap;html=1;aspect=fixed;labelBackgroundColor=#97D077;sketch=0;fillStyle=solid;strokeColor=#000000;strokeWidth=1;fillColor=none;glass=0;rounded=0;" vertex="1" parent="1">
          <mxGeometry x="160" y="120" width="40" height="40" as="geometry" />
        </mxCell>
        <mxCell id="KtkFy-ws_OHmOeXaZ4xC-11" value="" style="whiteSpace=wrap;html=1;aspect=fixed;labelBackgroundColor=#97D077;sketch=0;fillStyle=solid;strokeColor=default;strokeWidth=1;fillColor=none;" vertex="1" parent="1">
          <mxGeometry x="200" y="160" width="40" height="40" as="geometry" />
        </mxCell>
        <mxCell id="KtkFy-ws_OHmOeXaZ4xC-12" value="" style="whiteSpace=wrap;html=1;aspect=fixed;labelBackgroundColor=#97D077;sketch=0;fillStyle=solid;strokeColor=default;strokeWidth=1;fillColor=none;" vertex="1" parent="1">
          <mxGeometry x="240" y="160" width="40" height="40" as="geometry" />
        </mxCell>
        <mxCell id="KtkFy-ws_OHmOeXaZ4xC-13" value="" style="whiteSpace=wrap;html=1;aspect=fixed;labelBackgroundColor=#97D077;sketch=0;fillStyle=solid;strokeColor=default;strokeWidth=1;fillColor=none;" vertex="1" parent="1">
          <mxGeometry x="320" y="160" width="40" height="40" as="geometry" />
        </mxCell>
        <mxCell id="KtkFy-ws_OHmOeXaZ4xC-14" value="" style="whiteSpace=wrap;html=1;aspect=fixed;labelBackgroundColor=#97D077;sketch=0;fillStyle=solid;strokeColor=default;strokeWidth=1;fillColor=none;" vertex="1" parent="1">
          <mxGeometry x="280" y="160" width="40" height="40" as="geometry" />
        </mxCell>
        <mxCell id="KtkFy-ws_OHmOeXaZ4xC-15" value="" style="whiteSpace=wrap;html=1;aspect=fixed;labelBackgroundColor=#97D077;sketch=0;fillStyle=solid;strokeColor=#000000;strokeWidth=1;fillColor=none;glass=0;rounded=0;" vertex="1" parent="1">
          <mxGeometry x="160" y="160" width="40" height="40" as="geometry" />
        </mxCell>
        <mxCell id="KtkFy-ws_OHmOeXaZ4xC-16" value="" style="whiteSpace=wrap;html=1;aspect=fixed;labelBackgroundColor=#97D077;sketch=0;fillStyle=solid;strokeColor=default;strokeWidth=1;fillColor=none;" vertex="1" parent="1">
          <mxGeometry x="200" y="200" width="40" height="40" as="geometry" />
        </mxCell>
        <mxCell id="KtkFy-ws_OHmOeXaZ4xC-17" value="" style="whiteSpace=wrap;html=1;aspect=fixed;labelBackgroundColor=#97D077;sketch=0;fillStyle=solid;strokeColor=default;strokeWidth=1;fillColor=none;" vertex="1" parent="1">
          <mxGeometry x="240" y="200" width="40" height="40" as="geometry" />
        </mxCell>
        <mxCell id="KtkFy-ws_OHmOeXaZ4xC-18" value="" style="whiteSpace=wrap;html=1;aspect=fixed;labelBackgroundColor=#97D077;sketch=0;fillStyle=solid;strokeColor=default;strokeWidth=1;fillColor=none;" vertex="1" parent="1">
          <mxGeometry x="320" y="200" width="40" height="40" as="geometry" />
        </mxCell>
        <mxCell id="KtkFy-ws_OHmOeXaZ4xC-19" value="" style="whiteSpace=wrap;html=1;aspect=fixed;labelBackgroundColor=#97D077;sketch=0;fillStyle=solid;strokeColor=default;strokeWidth=1;fillColor=none;" vertex="1" parent="1">
          <mxGeometry x="280" y="200" width="40" height="40" as="geometry" />
        </mxCell>
        <mxCell id="KtkFy-ws_OHmOeXaZ4xC-20" value="" style="whiteSpace=wrap;html=1;aspect=fixed;labelBackgroundColor=#97D077;sketch=0;fillStyle=solid;strokeColor=#000000;strokeWidth=1;fillColor=none;glass=0;rounded=0;" vertex="1" parent="1">
          <mxGeometry x="160" y="200" width="40" height="40" as="geometry" />
        </mxCell>
        <mxCell id="KtkFy-ws_OHmOeXaZ4xC-21" value="" style="whiteSpace=wrap;html=1;aspect=fixed;labelBackgroundColor=#97D077;sketch=0;fillStyle=solid;strokeColor=default;strokeWidth=1;fillColor=none;" vertex="1" parent="1">
          <mxGeometry x="200" y="240" width="40" height="40" as="geometry" />
        </mxCell>
        <mxCell id="KtkFy-ws_OHmOeXaZ4xC-22" value="" style="whiteSpace=wrap;html=1;aspect=fixed;labelBackgroundColor=#97D077;sketch=0;fillStyle=solid;strokeColor=default;strokeWidth=1;fillColor=none;" vertex="1" parent="1">
          <mxGeometry x="240" y="240" width="40" height="40" as="geometry" />
        </mxCell>
        <mxCell id="KtkFy-ws_OHmOeXaZ4xC-23" value="" style="whiteSpace=wrap;html=1;aspect=fixed;labelBackgroundColor=#97D077;sketch=0;fillStyle=solid;strokeColor=default;strokeWidth=1;fillColor=none;" vertex="1" parent="1">
          <mxGeometry x="320" y="240" width="40" height="40" as="geometry" />
        </mxCell>
        <mxCell id="KtkFy-ws_OHmOeXaZ4xC-24" value="" style="whiteSpace=wrap;html=1;aspect=fixed;labelBackgroundColor=#97D077;sketch=0;fillStyle=solid;strokeColor=default;strokeWidth=1;fillColor=none;" vertex="1" parent="1">
          <mxGeometry x="280" y="240" width="40" height="40" as="geometry" />
        </mxCell>
        <mxCell id="KtkFy-ws_OHmOeXaZ4xC-25" value="" style="whiteSpace=wrap;html=1;aspect=fixed;labelBackgroundColor=#97D077;sketch=0;fillStyle=solid;strokeColor=#000000;strokeWidth=1;fillColor=none;glass=0;rounded=0;" vertex="1" parent="1">
          <mxGeometry x="160" y="240" width="40" height="40" as="geometry" />
        </mxCell>
        <mxCell id="KtkFy-ws_OHmOeXaZ4xC-26" value="" style="whiteSpace=wrap;html=1;aspect=fixed;labelBackgroundColor=#97D077;sketch=0;fillStyle=solid;strokeWidth=1;glass=0;rounded=0;shadow=0;fillColor=none;" vertex="1" parent="1">
          <mxGeometry x="360" y="80" width="40" height="40" as="geometry" />
        </mxCell>
        <mxCell id="KtkFy-ws_OHmOeXaZ4xC-27" value="" style="whiteSpace=wrap;html=1;aspect=fixed;labelBackgroundColor=#97D077;sketch=0;fillStyle=solid;strokeWidth=1;glass=0;rounded=0;shadow=0;fillColor=none;" vertex="1" parent="1">
          <mxGeometry x="400" y="80" width="40" height="40" as="geometry" />
        </mxCell>
        <mxCell id="KtkFy-ws_OHmOeXaZ4xC-28" value="" style="whiteSpace=wrap;html=1;aspect=fixed;labelBackgroundColor=#97D077;sketch=0;fillStyle=solid;strokeWidth=1;glass=0;rounded=0;shadow=0;fillColor=none;" vertex="1" parent="1">
          <mxGeometry x="360" y="120" width="40" height="40" as="geometry" />
        </mxCell>
        <mxCell id="KtkFy-ws_OHmOeXaZ4xC-29" value="" style="whiteSpace=wrap;html=1;aspect=fixed;labelBackgroundColor=#97D077;sketch=0;fillStyle=solid;strokeWidth=1;glass=0;rounded=0;shadow=0;fillColor=none;" vertex="1" parent="1">
          <mxGeometry x="400" y="120" width="40" height="40" as="geometry" />
        </mxCell>
        <mxCell id="KtkFy-ws_OHmOeXaZ4xC-30" value="" style="whiteSpace=wrap;html=1;aspect=fixed;labelBackgroundColor=#97D077;sketch=0;fillStyle=solid;strokeWidth=1;glass=0;rounded=0;shadow=0;fillColor=none;" vertex="1" parent="1">
          <mxGeometry x="360" y="160" width="40" height="40" as="geometry" />
        </mxCell>
        <mxCell id="KtkFy-ws_OHmOeXaZ4xC-31" value="" style="whiteSpace=wrap;html=1;aspect=fixed;labelBackgroundColor=#97D077;sketch=0;fillStyle=solid;strokeWidth=1;glass=0;rounded=0;shadow=0;fillColor=none;" vertex="1" parent="1">
          <mxGeometry x="400" y="160" width="40" height="40" as="geometry" />
        </mxCell>
        <mxCell id="KtkFy-ws_OHmOeXaZ4xC-32" value="" style="whiteSpace=wrap;html=1;aspect=fixed;labelBackgroundColor=#97D077;sketch=0;fillStyle=solid;strokeWidth=1;glass=0;rounded=0;shadow=0;fillColor=none;" vertex="1" parent="1">
          <mxGeometry x="360" y="200" width="40" height="40" as="geometry" />
        </mxCell>
        <mxCell id="KtkFy-ws_OHmOeXaZ4xC-33" value="" style="whiteSpace=wrap;html=1;aspect=fixed;labelBackgroundColor=#97D077;sketch=0;fillStyle=solid;strokeWidth=1;glass=0;rounded=0;shadow=0;fillColor=none;" vertex="1" parent="1">
          <mxGeometry x="400" y="200" width="40" height="40" as="geometry" />
        </mxCell>
        <mxCell id="KtkFy-ws_OHmOeXaZ4xC-34" value="" style="whiteSpace=wrap;html=1;aspect=fixed;labelBackgroundColor=#97D077;sketch=0;fillStyle=solid;strokeWidth=1;glass=0;rounded=0;shadow=0;fillColor=none;" vertex="1" parent="1">
          <mxGeometry x="360" y="240" width="40" height="40" as="geometry" />
        </mxCell>
        <mxCell id="KtkFy-ws_OHmOeXaZ4xC-35" value="" style="whiteSpace=wrap;html=1;aspect=fixed;labelBackgroundColor=#97D077;sketch=0;fillStyle=solid;strokeWidth=1;glass=0;rounded=0;shadow=0;fillColor=none;" vertex="1" parent="1">
          <mxGeometry x="400" y="240" width="40" height="40" as="geometry" />
        </mxCell>
        <mxCell id="KtkFy-ws_OHmOeXaZ4xC-36" value="" style="whiteSpace=wrap;html=1;aspect=fixed;labelBackgroundColor=#97D077;sketch=0;fillStyle=solid;strokeColor=default;strokeWidth=1;fillColor=none;" vertex="1" parent="1">
          <mxGeometry x="200" y="280" width="40" height="40" as="geometry" />
        </mxCell>
        <mxCell id="KtkFy-ws_OHmOeXaZ4xC-37" value="" style="whiteSpace=wrap;html=1;aspect=fixed;labelBackgroundColor=#97D077;sketch=0;fillStyle=solid;strokeColor=default;strokeWidth=1;fillColor=none;" vertex="1" parent="1">
          <mxGeometry x="240" y="280" width="40" height="40" as="geometry" />
        </mxCell>
        <mxCell id="KtkFy-ws_OHmOeXaZ4xC-38" value="" style="whiteSpace=wrap;html=1;aspect=fixed;labelBackgroundColor=#97D077;sketch=0;fillStyle=solid;strokeColor=default;strokeWidth=1;fillColor=none;" vertex="1" parent="1">
          <mxGeometry x="320" y="280" width="40" height="40" as="geometry" />
        </mxCell>
        <mxCell id="KtkFy-ws_OHmOeXaZ4xC-39" value="" style="whiteSpace=wrap;html=1;aspect=fixed;labelBackgroundColor=#97D077;sketch=0;fillStyle=solid;strokeColor=default;strokeWidth=1;fillColor=none;" vertex="1" parent="1">
          <mxGeometry x="280" y="280" width="40" height="40" as="geometry" />
        </mxCell>
        <mxCell id="KtkFy-ws_OHmOeXaZ4xC-40" value="" style="whiteSpace=wrap;html=1;aspect=fixed;labelBackgroundColor=#97D077;sketch=0;fillStyle=solid;strokeColor=#000000;strokeWidth=1;fillColor=none;glass=0;rounded=0;" vertex="1" parent="1">
          <mxGeometry x="160" y="280" width="40" height="40" as="geometry" />
        </mxCell>
        <mxCell id="KtkFy-ws_OHmOeXaZ4xC-41" value="" style="whiteSpace=wrap;html=1;aspect=fixed;labelBackgroundColor=#97D077;sketch=0;fillStyle=solid;strokeWidth=1;glass=0;rounded=0;shadow=0;fillColor=none;" vertex="1" parent="1">
          <mxGeometry x="360" y="280" width="40" height="40" as="geometry" />
        </mxCell>
        <mxCell id="KtkFy-ws_OHmOeXaZ4xC-42" value="" style="whiteSpace=wrap;html=1;aspect=fixed;labelBackgroundColor=#97D077;sketch=0;fillStyle=solid;strokeWidth=1;glass=0;rounded=0;shadow=0;fillColor=none;" vertex="1" parent="1">
          <mxGeometry x="400" y="280" width="40" height="40" as="geometry" />
        </mxCell>
        <mxCell id="KtkFy-ws_OHmOeXaZ4xC-43" value="" style="whiteSpace=wrap;html=1;aspect=fixed;labelBackgroundColor=#97D077;sketch=0;fillStyle=solid;strokeColor=default;strokeWidth=1;fillColor=none;" vertex="1" parent="1">
          <mxGeometry x="200" y="320" width="40" height="40" as="geometry" />
        </mxCell>
        <mxCell id="KtkFy-ws_OHmOeXaZ4xC-44" value="" style="whiteSpace=wrap;html=1;aspect=fixed;labelBackgroundColor=#97D077;sketch=0;fillStyle=solid;strokeColor=default;strokeWidth=1;fillColor=none;" vertex="1" parent="1">
          <mxGeometry x="240" y="320" width="40" height="40" as="geometry" />
        </mxCell>
        <mxCell id="KtkFy-ws_OHmOeXaZ4xC-45" value="" style="whiteSpace=wrap;html=1;aspect=fixed;labelBackgroundColor=#97D077;sketch=0;fillStyle=solid;strokeColor=default;strokeWidth=1;fillColor=none;" vertex="1" parent="1">
          <mxGeometry x="320" y="320" width="40" height="40" as="geometry" />
        </mxCell>
        <mxCell id="KtkFy-ws_OHmOeXaZ4xC-46" value="" style="whiteSpace=wrap;html=1;aspect=fixed;labelBackgroundColor=#97D077;sketch=0;fillStyle=solid;strokeColor=default;strokeWidth=1;fillColor=none;" vertex="1" parent="1">
          <mxGeometry x="280" y="320" width="40" height="40" as="geometry" />
        </mxCell>
        <mxCell id="KtkFy-ws_OHmOeXaZ4xC-47" value="" style="whiteSpace=wrap;html=1;aspect=fixed;labelBackgroundColor=#97D077;sketch=0;fillStyle=solid;strokeColor=#000000;strokeWidth=1;fillColor=none;glass=0;rounded=0;" vertex="1" parent="1">
          <mxGeometry x="160" y="320" width="40" height="40" as="geometry" />
        </mxCell>
        <mxCell id="KtkFy-ws_OHmOeXaZ4xC-48" value="" style="whiteSpace=wrap;html=1;aspect=fixed;labelBackgroundColor=#97D077;sketch=0;fillStyle=solid;strokeWidth=1;glass=0;rounded=0;shadow=0;fillColor=none;" vertex="1" parent="1">
          <mxGeometry x="360" y="320" width="40" height="40" as="geometry" />
        </mxCell>
        <mxCell id="KtkFy-ws_OHmOeXaZ4xC-49" value="" style="whiteSpace=wrap;html=1;aspect=fixed;labelBackgroundColor=#97D077;sketch=0;fillStyle=solid;strokeWidth=1;glass=0;rounded=0;shadow=0;fillColor=none;" vertex="1" parent="1">
          <mxGeometry x="400" y="320" width="40" height="40" as="geometry" />
        </mxCell>
      </root>
    </mxGraphModel>
  </diagram>
</mxfile>
